<mxfile host="Electron" modified="2024-10-05T00:39:35.180Z" agent="Mozilla/5.0 (Windows NT 10.0; Win64; x64) AppleWebKit/537.36 (KHTML, like Gecko) draw.io/24.6.1 Chrome/124.0.6367.207 Electron/30.0.6 Safari/537.36" etag="e1wtN7sWP1ylIoIjmvfv" version="24.6.1" type="device">
  <diagram name="Page-1" id="mIUtassxi8I9afsvGdOS">
    <mxGraphModel dx="1152" dy="701" grid="1" gridSize="10" guides="1" tooltips="1" connect="1" arrows="1" fold="1" page="1" pageScale="1" pageWidth="850" pageHeight="1100" math="0" shadow="0">
      <root>
        <mxCell id="0" />
        <mxCell id="1" parent="0" />
        <mxCell id="m2Lfcm7bGaDUb-Z9Y04_-1" value="Mulai" style="whiteSpace=wrap;strokeWidth=2;" vertex="1" parent="1">
          <mxGeometry x="472" y="20" width="54" height="34" as="geometry" />
        </mxCell>
        <mxCell id="m2Lfcm7bGaDUb-Z9Y04_-2" value="Apakah Member?" style="whiteSpace=wrap;strokeWidth=2;" vertex="1" parent="1">
          <mxGeometry x="431" y="104" width="136" height="34" as="geometry" />
        </mxCell>
        <mxCell id="m2Lfcm7bGaDUb-Z9Y04_-3" value="Total Belanja &gt; 1.000.000?" style="whiteSpace=wrap;strokeWidth=2;" vertex="1" parent="1">
          <mxGeometry x="140" y="207" width="205" height="34" as="geometry" />
        </mxCell>
        <mxCell id="m2Lfcm7bGaDUb-Z9Y04_-4" value="Diskon 15%" style="whiteSpace=wrap;strokeWidth=2;" vertex="1" parent="1">
          <mxGeometry x="20" y="413" width="93" height="34" as="geometry" />
        </mxCell>
        <mxCell id="m2Lfcm7bGaDUb-Z9Y04_-5" value="Total Belanja &gt; 500.000?" style="whiteSpace=wrap;strokeWidth=2;" vertex="1" parent="1">
          <mxGeometry x="218" y="310" width="190" height="34" as="geometry" />
        </mxCell>
        <mxCell id="m2Lfcm7bGaDUb-Z9Y04_-6" value="Diskon 10%" style="whiteSpace=wrap;strokeWidth=2;" vertex="1" parent="1">
          <mxGeometry x="163" y="413" width="93" height="34" as="geometry" />
        </mxCell>
        <mxCell id="m2Lfcm7bGaDUb-Z9Y04_-7" value="Hanya Potongan Member 10%" style="whiteSpace=wrap;strokeWidth=2;" vertex="1" parent="1">
          <mxGeometry x="306" y="413" width="223" height="34" as="geometry" />
        </mxCell>
        <mxCell id="m2Lfcm7bGaDUb-Z9Y04_-8" value="Total Belanja &gt; 1.000.000?" style="whiteSpace=wrap;strokeWidth=2;" vertex="1" parent="1">
          <mxGeometry x="676" y="207" width="205" height="34" as="geometry" />
        </mxCell>
        <mxCell id="m2Lfcm7bGaDUb-Z9Y04_-9" value="Diskon 10%" style="whiteSpace=wrap;strokeWidth=2;" vertex="1" parent="1">
          <mxGeometry x="579" y="413" width="93" height="34" as="geometry" />
        </mxCell>
        <mxCell id="m2Lfcm7bGaDUb-Z9Y04_-10" value="Total Belanja &gt; 500.000?" style="whiteSpace=wrap;strokeWidth=2;" vertex="1" parent="1">
          <mxGeometry x="753" y="310" width="190" height="34" as="geometry" />
        </mxCell>
        <mxCell id="m2Lfcm7bGaDUb-Z9Y04_-11" value="Diskon 5%" style="whiteSpace=wrap;strokeWidth=2;" vertex="1" parent="1">
          <mxGeometry x="722" y="413" width="84" height="34" as="geometry" />
        </mxCell>
        <mxCell id="m2Lfcm7bGaDUb-Z9Y04_-12" value="Tidak Dapat Diskon" style="whiteSpace=wrap;strokeWidth=2;" vertex="1" parent="1">
          <mxGeometry x="856" y="413" width="153" height="34" as="geometry" />
        </mxCell>
        <mxCell id="m2Lfcm7bGaDUb-Z9Y04_-13" value="Selesai" style="whiteSpace=wrap;strokeWidth=2;" vertex="1" parent="1">
          <mxGeometry x="489" y="497" width="64" height="34" as="geometry" />
        </mxCell>
        <mxCell id="m2Lfcm7bGaDUb-Z9Y04_-14" value="" style="curved=1;startArrow=none;endArrow=block;exitX=0.51;exitY=1;entryX=0.5;entryY=0;rounded=0;" edge="1" parent="1" source="m2Lfcm7bGaDUb-Z9Y04_-1" target="m2Lfcm7bGaDUb-Z9Y04_-2">
          <mxGeometry relative="1" as="geometry">
            <Array as="points" />
          </mxGeometry>
        </mxCell>
        <mxCell id="m2Lfcm7bGaDUb-Z9Y04_-15" value="Ya" style="curved=1;startArrow=none;endArrow=block;exitX=0;exitY=0.9;entryX=0.5;entryY=0;rounded=0;" edge="1" parent="1" source="m2Lfcm7bGaDUb-Z9Y04_-2" target="m2Lfcm7bGaDUb-Z9Y04_-3">
          <mxGeometry relative="1" as="geometry">
            <Array as="points">
              <mxPoint x="242" y="173" />
            </Array>
          </mxGeometry>
        </mxCell>
        <mxCell id="m2Lfcm7bGaDUb-Z9Y04_-16" value="Ya" style="curved=1;startArrow=none;endArrow=block;exitX=0.21;exitY=1;entryX=0.5;entryY=0;rounded=0;" edge="1" parent="1" source="m2Lfcm7bGaDUb-Z9Y04_-3" target="m2Lfcm7bGaDUb-Z9Y04_-4">
          <mxGeometry relative="1" as="geometry">
            <Array as="points">
              <mxPoint x="66" y="276" />
            </Array>
          </mxGeometry>
        </mxCell>
        <mxCell id="m2Lfcm7bGaDUb-Z9Y04_-17" value="Tidak" style="curved=1;startArrow=none;endArrow=block;exitX=0.61;exitY=1;entryX=0.5;entryY=0;rounded=0;" edge="1" parent="1" source="m2Lfcm7bGaDUb-Z9Y04_-3" target="m2Lfcm7bGaDUb-Z9Y04_-5">
          <mxGeometry relative="1" as="geometry">
            <Array as="points">
              <mxPoint x="313" y="276" />
            </Array>
          </mxGeometry>
        </mxCell>
        <mxCell id="m2Lfcm7bGaDUb-Z9Y04_-18" value="Ya" style="curved=1;startArrow=none;endArrow=block;exitX=0.32;exitY=1;entryX=0.5;entryY=0;rounded=0;" edge="1" parent="1" source="m2Lfcm7bGaDUb-Z9Y04_-5" target="m2Lfcm7bGaDUb-Z9Y04_-6">
          <mxGeometry relative="1" as="geometry">
            <Array as="points">
              <mxPoint x="209" y="379" />
            </Array>
          </mxGeometry>
        </mxCell>
        <mxCell id="m2Lfcm7bGaDUb-Z9Y04_-19" value="Tidak" style="curved=1;startArrow=none;endArrow=block;exitX=0.68;exitY=1;entryX=0.5;entryY=0;rounded=0;" edge="1" parent="1" source="m2Lfcm7bGaDUb-Z9Y04_-5" target="m2Lfcm7bGaDUb-Z9Y04_-7">
          <mxGeometry relative="1" as="geometry">
            <Array as="points">
              <mxPoint x="417" y="379" />
            </Array>
          </mxGeometry>
        </mxCell>
        <mxCell id="m2Lfcm7bGaDUb-Z9Y04_-20" value="Tidak" style="curved=1;startArrow=none;endArrow=block;exitX=1;exitY=0.87;entryX=0.5;entryY=0;rounded=0;" edge="1" parent="1" source="m2Lfcm7bGaDUb-Z9Y04_-2" target="m2Lfcm7bGaDUb-Z9Y04_-8">
          <mxGeometry relative="1" as="geometry">
            <Array as="points">
              <mxPoint x="779" y="173" />
            </Array>
          </mxGeometry>
        </mxCell>
        <mxCell id="m2Lfcm7bGaDUb-Z9Y04_-21" value="Ya" style="curved=1;startArrow=none;endArrow=block;exitX=0.25;exitY=1;entryX=0.5;entryY=0;rounded=0;" edge="1" parent="1" source="m2Lfcm7bGaDUb-Z9Y04_-8" target="m2Lfcm7bGaDUb-Z9Y04_-9">
          <mxGeometry x="-0.0033" y="15" relative="1" as="geometry">
            <Array as="points">
              <mxPoint x="625" y="276" />
            </Array>
            <mxPoint as="offset" />
          </mxGeometry>
        </mxCell>
        <mxCell id="m2Lfcm7bGaDUb-Z9Y04_-22" value="Tidak" style="curved=1;startArrow=none;endArrow=block;exitX=0.61;exitY=1;entryX=0.5;entryY=0;rounded=0;" edge="1" parent="1" source="m2Lfcm7bGaDUb-Z9Y04_-8" target="m2Lfcm7bGaDUb-Z9Y04_-10">
          <mxGeometry relative="1" as="geometry">
            <Array as="points">
              <mxPoint x="848" y="276" />
            </Array>
          </mxGeometry>
        </mxCell>
        <mxCell id="m2Lfcm7bGaDUb-Z9Y04_-23" value="Ya" style="curved=1;startArrow=none;endArrow=block;exitX=0.35;exitY=1;entryX=0.5;entryY=0;rounded=0;" edge="1" parent="1" source="m2Lfcm7bGaDUb-Z9Y04_-10" target="m2Lfcm7bGaDUb-Z9Y04_-11">
          <mxGeometry relative="1" as="geometry">
            <Array as="points">
              <mxPoint x="764" y="379" />
            </Array>
          </mxGeometry>
        </mxCell>
        <mxCell id="m2Lfcm7bGaDUb-Z9Y04_-24" value="Tidak" style="curved=1;startArrow=none;endArrow=block;exitX=0.65;exitY=1;entryX=0.5;entryY=0;rounded=0;" edge="1" parent="1" source="m2Lfcm7bGaDUb-Z9Y04_-10" target="m2Lfcm7bGaDUb-Z9Y04_-12">
          <mxGeometry relative="1" as="geometry">
            <Array as="points">
              <mxPoint x="932" y="379" />
            </Array>
          </mxGeometry>
        </mxCell>
        <mxCell id="m2Lfcm7bGaDUb-Z9Y04_-25" value="" style="curved=1;startArrow=none;endArrow=block;exitX=0.5;exitY=1;entryX=0;entryY=0.41;rounded=0;" edge="1" parent="1" source="m2Lfcm7bGaDUb-Z9Y04_-4" target="m2Lfcm7bGaDUb-Z9Y04_-13">
          <mxGeometry relative="1" as="geometry">
            <Array as="points">
              <mxPoint x="66" y="472" />
            </Array>
          </mxGeometry>
        </mxCell>
        <mxCell id="m2Lfcm7bGaDUb-Z9Y04_-26" value="" style="curved=1;startArrow=none;endArrow=block;exitX=0.5;exitY=1;entryX=0;entryY=0.37;rounded=0;" edge="1" parent="1" source="m2Lfcm7bGaDUb-Z9Y04_-6" target="m2Lfcm7bGaDUb-Z9Y04_-13">
          <mxGeometry relative="1" as="geometry">
            <Array as="points">
              <mxPoint x="209" y="472" />
            </Array>
          </mxGeometry>
        </mxCell>
        <mxCell id="m2Lfcm7bGaDUb-Z9Y04_-27" value="" style="curved=1;startArrow=none;endArrow=block;exitX=0.5;exitY=1;entryX=0;entryY=0.12;rounded=0;" edge="1" parent="1" source="m2Lfcm7bGaDUb-Z9Y04_-7" target="m2Lfcm7bGaDUb-Z9Y04_-13">
          <mxGeometry relative="1" as="geometry">
            <Array as="points">
              <mxPoint x="417" y="472" />
            </Array>
          </mxGeometry>
        </mxCell>
        <mxCell id="m2Lfcm7bGaDUb-Z9Y04_-28" value="" style="curved=1;startArrow=none;endArrow=block;exitX=0.5;exitY=1;entryX=1;entryY=0.12;rounded=0;" edge="1" parent="1" source="m2Lfcm7bGaDUb-Z9Y04_-9" target="m2Lfcm7bGaDUb-Z9Y04_-13">
          <mxGeometry relative="1" as="geometry">
            <Array as="points">
              <mxPoint x="625" y="472" />
            </Array>
          </mxGeometry>
        </mxCell>
        <mxCell id="m2Lfcm7bGaDUb-Z9Y04_-29" value="" style="curved=1;startArrow=none;endArrow=block;exitX=0.5;exitY=1;entryX=1;entryY=0.34;rounded=0;" edge="1" parent="1" source="m2Lfcm7bGaDUb-Z9Y04_-11" target="m2Lfcm7bGaDUb-Z9Y04_-13">
          <mxGeometry relative="1" as="geometry">
            <Array as="points">
              <mxPoint x="764" y="472" />
            </Array>
          </mxGeometry>
        </mxCell>
        <mxCell id="m2Lfcm7bGaDUb-Z9Y04_-30" value="" style="curved=1;startArrow=none;endArrow=block;exitX=0.5;exitY=1;entryX=1;entryY=0.4;rounded=0;" edge="1" parent="1" source="m2Lfcm7bGaDUb-Z9Y04_-12" target="m2Lfcm7bGaDUb-Z9Y04_-13">
          <mxGeometry relative="1" as="geometry">
            <Array as="points">
              <mxPoint x="932" y="472" />
            </Array>
          </mxGeometry>
        </mxCell>
      </root>
    </mxGraphModel>
  </diagram>
</mxfile>
